<svg width="316" height="44" viewBox="0 0 316 44" fill="none" xmlns="http://www.w3.org/2000/svg">
<g clip-path="url(#clip0_111_22)">
<path d="M7.07166 2.552V21.048L8.92766 23H1.05566L2.91166 21.048V2.552L1.05566 0.600001H8.92766L7.07166 2.552ZM15.9205 0.600001L28.1765 15.416V3.192L25.6805 0.600001H31.9205L29.4245 3.192V23L14.5125 5.208V20.408L17.0085 23H10.7685L13.2645 20.408V3.736L10.6405 0.600001H15.9205ZM33.986 0.600001H52.162L53.122 7.64L48.418 1.848H45.154V21.048L47.01 23H39.138L40.994 21.048V1.848H37.698L33.026 7.64L33.986 0.600001ZM72.7927 17.176L71.8327 23H54.6807L56.5367 21.048V2.552L54.6807 0.600001H70.8727L71.8327 6.424L66.9687 1.848H60.6967V9.72H65.5607L68.0887 7.224V13.336L65.5607 10.936H60.6967V21.752H67.9287L72.7927 17.176ZM91.7077 17.56L90.7477 23H74.5557L76.4117 21.048V2.552L74.5557 0.600001H82.4277L80.5717 2.552V21.752H86.8437L91.7077 17.56ZM110.302 17.56L109.342 23H93.1494L95.0055 21.048V2.552L93.1494 0.600001H101.022L99.1655 2.552V21.752H105.438L110.302 17.56ZM117.76 2.552V21.048L119.616 23H111.743L113.6 21.048V2.552L111.743 0.600001H119.616L117.76 2.552ZM140.536 3.512L141.368 9.816C138.776 4.6 134.936 1.528 131.352 1.528C130.712 1.528 130.072 1.656 129.432 1.848C125.464 3.16 124.152 8.024 126.136 14.04C127.608 18.552 130.808 20.856 134.84 20.856C135.704 20.856 136.6 20.76 137.528 20.536V13.688H131.544V12.44H141.688V23.512L139.096 21.624C137.336 22.872 135.16 23.64 132.728 23.64C126.072 23.64 121.624 18.936 121.624 11.864C121.624 4.792 126.072 0.0880013 132.088 0.0880013C135.32 0.0880013 138.616 1.464 140.536 3.512ZM161.762 17.176L160.802 23H143.65L145.506 21.048V2.552L143.65 0.600001H159.842L160.802 6.424L155.938 1.848H149.666V9.72H154.53L157.058 7.224V13.336L154.53 10.936H149.666V21.752H156.898L161.762 17.176ZM168.421 0.600001L180.677 15.416V3.192L178.181 0.600001H184.421L181.925 3.192V23L167.013 5.208V20.408L169.509 23H163.269L165.765 20.408V3.736L163.141 0.600001H168.421ZM186.486 0.600001H204.662L205.622 7.64L200.918 1.848H197.654V21.048L199.51 23H191.638L193.494 21.048V1.848H190.198L185.526 7.64L186.486 0.600001ZM217.95 4.056L216.158 0.600001H220.446L229.182 17.432L237.886 0.600001H243.07L241.214 2.552V21.048L243.07 23H235.198L237.054 21.048V5.176L227.806 23L219.166 6.392V20.408L221.662 23H215.454L217.95 20.408V4.056ZM250.947 2.552V15.256C250.947 19.448 253.155 22.264 256.611 22.264C260.099 22.264 262.531 19.448 262.531 15.256V3.16L260.035 0.600001H266.243L263.747 3.192V15C263.747 20.12 260.963 23.512 256.195 23.512C250.595 23.512 246.787 20.12 246.787 15V2.552L244.931 0.600001H252.803L250.947 2.552ZM274.863 0.0880013C277.615 0.0880013 280.815 0.888001 282.863 2.072L283.663 7.96C282.063 3.96 278.767 1.336 275.407 1.336C273.391 1.336 271.951 2.584 271.951 4.44C271.951 9.464 284.111 9.912 284.111 16.888C284.111 20.856 281.039 23.512 276.431 23.512C273.263 23.512 270.031 22.616 268.239 21.24L267.343 14.488C269.423 19.16 272.815 22.264 275.855 22.264C278.319 22.264 279.951 20.76 279.951 18.52C279.951 13.464 267.791 11.96 267.791 6.104C267.791 2.488 270.607 0.0880013 274.863 0.0880013ZM292.635 2.552V21.048L294.491 23H286.618L288.475 21.048V2.552L286.618 0.600001H294.491L292.635 2.552ZM315.411 3.512L316.243 9.816C313.651 4.632 309.811 1.56 306.227 1.56C305.555 1.56 304.915 1.656 304.307 1.848C300.339 3.16 299.027 8.024 301.011 14.04C302.579 18.84 306.131 21.4 310.579 21.4C312.179 21.4 313.875 21.08 315.635 20.408C313.683 22.456 310.899 23.64 307.603 23.64C300.947 23.64 296.499 18.936 296.499 11.864C296.499 4.792 300.947 0.0880013 306.963 0.0880013C310.195 0.0880013 313.491 1.464 315.411 3.512Z" fill="white"/>
<path d="M259.62 30.82L260.14 34.76C258.52 31.5 256.12 29.58 253.88 29.58C253.48 29.58 253.08 29.66 252.68 29.78C250.2 30.6 249.38 33.64 250.62 37.4C251.54 40.22 253.54 41.66 256.06 41.66C256.6 41.66 257.16 41.6 257.74 41.46V37.18H254V36.4H260.34V43.32L258.72 42.14C257.62 42.92 256.26 43.4 254.74 43.4C250.58 43.4 247.8 40.46 247.8 36.04C247.8 31.62 250.58 28.68 254.34 28.68C256.36 28.68 258.42 29.54 259.62 30.82ZM265.326 37.44V41.78L266.486 43H261.566L262.726 41.78V30.22L261.566 29H267.126C270.726 29 273.126 30.64 273.126 33.1C273.126 34.96 271.846 36.44 269.846 37L274.086 43H269.086L270.186 41.8L267.246 37.44H265.326ZM265.326 29.72V36.66H266.766C269.026 36.66 270.526 35.26 270.526 33.14C270.526 31.06 269.026 29.72 266.766 29.72H265.326ZM274.46 36C274.46 31.6 277.24 28.68 281.4 28.68C285.54 28.68 288.32 31.6 288.32 36C288.32 40.4 285.54 43.32 281.4 43.32C277.24 43.32 274.46 40.4 274.46 36ZM277.06 35.98C277.06 40 278.78 42.68 281.4 42.68C283.98 42.68 285.72 40 285.72 35.98C285.72 31.96 283.98 29.28 281.4 29.28C278.78 29.28 277.06 31.96 277.06 35.98ZM293.432 30.22V38.16C293.432 40.78 294.812 42.54 296.972 42.54C299.152 42.54 300.672 40.78 300.672 38.16V30.6L299.112 29H302.992L301.432 30.62V38C301.432 41.2 299.692 43.32 296.712 43.32C293.212 43.32 290.832 41.2 290.832 38V30.22L289.672 29H294.592L293.432 30.22ZM307.983 38.2V41.78L309.143 43H304.222L305.383 41.78V30.22L304.222 29H309.163C313.263 29 315.983 30.78 315.983 33.46C315.983 36.3 313.243 38.2 309.143 38.2H307.983ZM307.983 29.72V37.46H308.903C311.583 37.46 313.383 35.88 313.383 33.52C313.383 31.24 311.583 29.72 308.903 29.72H307.983Z" fill="#626262"/>
<path d="M233.5 29H7.5C3.35786 29 0 32.3579 0 36.5C0 40.6421 3.35786 44 7.5 44H233.5C237.642 44 241 40.6421 241 36.5C241 32.3579 237.642 29 233.5 29Z" fill="#252525"/>
</g>
<defs>
<clipPath id="clip0_111_22">
<rect width="316" height="44" fill="white"/>
</clipPath>
</defs>
</svg>
