<svg xmlns="http://www.w3.org/2000/svg" width="200.1" height="200.1" viewBox="0 0 3000 3000">
  <defs>
    <style>
      .cls-1 {
        fill: #fff;
        fill-rule: evenodd;
      }
    </style>
  </defs>
  <path class="cls-1" d="M1456,894c242.15-2.742,436.5,40.586,605,112,71,30.09,141.98,57.6,205,96,24.42,14.88,50.71,24.23,75,39,66.17,40.23,135.94,75.73,202,116,17.95,10.94,37.07,18.09,55,29,62.22,37.87,127.99,74.9,170,133,23.41,32.37,46.3,78.51,24,130-18.86,43.55-53.92,77.31-90,104-19.81,14.65-39.76,30.59-61,44-28.21,17.81-58.5,32.65-87,50-10.07,6.13-20.9,8.87-31,15-30.49,18.52-64.33,32.26-95,51-148.63,90.83-308.44,166.17-489,226-53.13,17.6-109.45,27.55-165,43-24.61,6.85-48.57,6.74-74,13-26.7,6.57-57.92,5.78-86,12-12.64,2.8-26.27.43-38,3q-19.995.495-40,1c-12.6,2.67-30.63,1-45,1-14.03,0-31.74,1.65-44-1q-21-.495-42-1c-27.13-6-58.06-3.08-84-9-28.34-6.47-56.73-4.97-84-12-64.36-16.6-128.06-26.98-188-47-175.577-58.64-333.959-132.81-479-222-28.4-17.47-59.648-30.74-88-48-11.356-6.91-23.65-10.11-35-17-25.616-15.56-53.384-28.09-79-44-24.695-15.34-48.825-32.32-72-49-42.817-30.82-83.743-67.9-105-120-18.208-44.63,2.145-86.76,21-115,42.248-63.27,112.52-101.92,178-142,13.723-8.4,28.218-13.62,42-22,42.28-25.71,86.9-49.21,129-75,9.565-5.86,19.378-9.14,29-15,139.852-85.16,290.85-155.08,460-211,61.42-20.306,128.07-28.292,194-45,24.56-6.225,50.02-6.53,74-12l22-1c24.19-5.331,52.87-1.723,77-7C1427.32,894.744,1448.63,898.653,1456,894Zm-92,131c-10.27,6.37-38.27,7.12-52,11-34.37,9.72-72.63,14.37-107,24q-21,4.005-42,8c-183.123,60.07-360.006,124.89-509,219-63.026,39.81-136.973,89.25-167,161q-4.5,16.005-9,32c-8.006,31.6,2.486,67.76,13,88,30.566,58.83,79.27,92.52,134,127,99.918,62.96,202.628,116.43,317,166,48.976,21.23,101.26,37.82,153,55,11.75,3.9,22.13,5.06,34,9,24.28,8.06,51.76,14.88,77,22,14.31,4.04,26.99,4.75,41,9,41.46,12.57,84.47,23.51,137,24v-2c-4.39-5.86-4.94-14.98-8-22-6.2-14.23-14.77-28.95-23-42-17.78-28.18-40.21-52.76-60-79-7.64-10.14-19.39-17.94-27-28-12.3-16.27-33.73-37.71-50-50-6.9-5.21-12.07-13.77-19-19-27.77-20.97-54.45-42.28-85-61-17.19-10.54-34.72-18.6-51-30-11.97-8.38-22.58-19.37-34-28-6.45-4.87-14.19-10.61-19-17-25-33.21-50.3-81.01-31-140,27.34-83.57,106.13-113.81,173-158,68.39-45.2,128.43-111.82,176-178,21.28-29.61,48.43-60.58,58-101h-20Zm238,0c8.6,40.45,36.01,71.87,57,101,13.14,18.24,27.61,34.27,41,52,5.52,7.31,14.5,12.73,20,20,12.3,16.27,33.73,37.71,50,50,6.9,5.21,12.07,13.77,19,19,18.14,13.7,34.95,29.32,54,42,60.26,40.11,133.42,67.57,163,138,4.63,11.01,6.24,23.51,9,36,5.02,22.74-5.32,57.45-11,71-26.17,62.48-77.43,91.16-132,125-23.28,14.44-47.12,28.95-69,45-11.75,8.62-21.85,22.57-33,31-15.9,12.02-30.99,28.11-43,44-4.93,6.53-13.05,11.45-18,18-12.68,16.78-26.44,31.89-39,49-23.93,32.62-57.41,69.26-68,114h21c5.22-2.99,14.53-.47,21-2q22.005-4.005,44-8c41.06-11.71,85.51-19.88,126-33,10.53-3.41,19.57-3.56,30-7,58.76-19.38,118.41-34.94,174-58,113.46-47.08,217.3-97.29,315-159,65.32-41.26,138.19-82.62,169-158,12.35-30.21,7.37-73-3-101-26.16-70.65-73.11-101.79-131-140-113.11-74.66-235.33-132.91-369-188-48.92-20.17-99.8-31.84-152-49-34.36-11.29-71.78-17.03-108-28C1697.55,1036.44,1654.51,1025.53,1602,1025Zm-111,73c-1.41,12.51-9.53,23.87-14,34-15.34,34.75-33.58,64.02-54,93-55.22,78.35-125.99,143.49-203,200-33.97,24.93-66.13,54.12-102,77v1h1c3.68,5.07,9.88,7.32,15,11,12.66,9.09,25.07,18.71,38,28,37.98,27.27,72.76,58.96,110,87,9.22,6.94,18.24,16.2,27,24q4.995,5.505,10,11a229.784,229.784,0,0,1,43,43q5.505,4.995,11,10c14.61,19.32,32.66,36.69,46,57,10.26,15.62,16.25,32.96,26,49,16.62,27.36,33.37,56.23,48,85h1v-1c4.53-5.31,5.08-14.11,8-21,6.19-14.59,12.73-31.39,21-45,17.4-28.64,34.58-56.54,54-83,8.83-12.03,21.08-22.21,30-34,8.78-11.62,19.12-20.62,29-31q3-4.005,6-8c13.18-10.06,22.96-24.14,36-34,35.58-26.91,67.59-58.78,104-85,20.02-14.42,39.2-29.76,59-44,8.47-6.09,21.18-11.4,27-20-10.69-6.61-19.91-15.88-30-23-25.93-18.31-49.86-38.51-75-57-25.51-18.76-47.96-40.09-73-59-7.29-5.51-12.73-14.5-20-20a277.482,277.482,0,0,1-49-49c-11.15-14.76-26.86-26.99-38-42-11.69-15.76-19.47-33.81-30-51-12.61-20.59-25.37-42.42-38-63C1509.58,1129.17,1499.06,1101.92,1491,1098Z"/>
</svg>
